<svg xmlns="http://www.w3.org/2000/svg" viewBox="0 0 140 38" class="header_logo_logo__ehq_l"><path d="M0 11.805c0-3.667 0-5.5.592-6.947A7.82 7.82 0 0 1 4.802.6C6.23 0 8.041 0 11.666 0h116.666c3.624 0 5.436 0 6.866.6a7.83 7.83 0 0 1 4.209 4.258c.592 1.446.592 3.28.592 6.947v14.39c0 3.667 0 5.5-.592 6.947a7.83 7.83 0 0 1-4.209 4.259c-1.43.599-3.242.599-6.866.599H11.667c-3.624 0-5.436 0-6.866-.6a7.82 7.82 0 0 1-4.209-4.258C0 31.696 0 29.862 0 26.195z"></path><path fill="#fff" d="M49.053 23.914h-6.96a4.36 4.36 0 0 1-3.1-1.295 4.47 4.47 0 0 1-1.29-3.131l.005-7.075a4.47 4.47 0 0 1 1.29-3.133A4.36 4.36 0 0 1 42.1 7.984h6.96c1.162 0 2.277.466 3.1 1.296a4.47 4.47 0 0 1 1.291 3.133l-.005 7.075a4.47 4.47 0 0 1-1.292 3.131 4.36 4.36 0 0 1-3.1 1.295m-7.17-11.629-.006 7.324h7.394l.007-7.324zM93.574 23.914h-6.96a4.36 4.36 0 0 1-3.1-1.295 4.47 4.47 0 0 1-1.291-3.131l.006-7.075A4.47 4.47 0 0 1 83.52 9.28a4.36 4.36 0 0 1 3.1-1.296h6.96c1.163 0 2.278.466 3.1 1.296a4.47 4.47 0 0 1 1.292 3.133l-.007 7.075a4.47 4.47 0 0 1-1.291 3.131 4.36 4.36 0 0 1-3.1 1.295m-7.17-11.629L86.4 19.61h7.394l.005-7.324zM24.242 15.975c0 5.037-3.234 8.437-7.514 8.437-2.316-.031-4.122-1.123-5.105-2.598h-.16v8.064H7.215V7.954h4.248v2.054h.16c.983-1.444 2.822-2.535 5.073-2.535 4.47-.032 7.545 3.558 7.545 8.502m-4.312-.032c0-2.503-1.744-4.363-4.248-4.363-2.474 0-4.218 1.893-4.218 4.363 0 2.374 1.68 4.363 4.217 4.363 2.505 0 4.249-1.86 4.249-4.363M36.672 7.955v4.331h-2.854c-2.06 0-3.52 1.476-3.52 3.69v7.956h-4.28V7.955h4.027v2.502h.19c.57-1.572 1.966-2.502 3.805-2.502zM80.006 14.275v9.656h-4.28V14.95c0-2.277-1.237-3.24-2.759-3.24-1.459 0-3.044 1.056-3.044 3.72v8.502h-4.28v-8.95c0-2.278-1.206-3.241-2.727-3.241-1.808.032-3.044 1.54-3.044 3.882v8.31h-4.283V7.953h4.091v2.02h.127c.983-1.508 2.536-2.47 4.5-2.47 2.03 0 3.617.962 4.471 2.598h.127c1.173-1.636 2.917-2.598 5.105-2.598 3.204.002 5.996 2.15 5.996 6.77M111.745 7.955h4.375l-6.751 15.977h-4.283L98.335 7.955h4.598l4.5 10.78zM128.379 7.954h4.249V23.93h-4.249v-2.114h-.161c-.983 1.475-2.79 2.567-5.105 2.598-4.28 0-7.514-3.4-7.514-8.437 0-4.94 3.075-8.534 7.546-8.502 2.283 0 4.09 1.091 5.073 2.534h.161zm0 7.989c0-2.47-1.744-4.364-4.217-4.364-2.505 0-4.249 1.86-4.249 4.364s1.744 4.362 4.249 4.362c2.536 0 4.217-1.989 4.217-4.362"></path></svg>